<?xml version="1.0" encoding="UTF-8" standalone="no"?>
<svg
   xmlns:dc="http://purl.org/dc/elements/1.1/"
   xmlns:cc="http://creativecommons.org/ns#"
   xmlns:rdf="http://www.w3.org/1999/02/22-rdf-syntax-ns#"
   xmlns:svg="http://www.w3.org/2000/svg"
   xmlns="http://www.w3.org/2000/svg"
   xmlns:sodipodi="http://sodipodi.sourceforge.net/DTD/sodipodi-0.dtd"
   xmlns:inkscape="http://www.inkscape.org/namespaces/inkscape"
   width="210mm"
   height="297mm"
   viewBox="0 0 210 297"
   version="1.1"
   id="svg8"
   inkscape:version="1.0.1 (3bc2e813f5, 2020-09-07)"
   sodipodi:docname="arrow.svg">
  <defs
     id="defs2">
    <inkscape:perspective
       sodipodi:type="inkscape:persp3d"
       inkscape:vp_x="0 : 148.5 : 1"
       inkscape:vp_y="0 : 1000 : 0"
       inkscape:vp_z="210 : 148.5 : 1"
       inkscape:persp3d-origin="105 : 99 : 1"
       id="perspective32" />
  </defs>
  <sodipodi:namedview
     id="base"
     pagecolor="#ffffff"
     bordercolor="#666666"
     borderopacity="1.0"
     inkscape:pageopacity="0.0"
     inkscape:pageshadow="2"
     inkscape:zoom="0.35"
     inkscape:cx="400"
     inkscape:cy="328.57143"
     inkscape:document-units="mm"
     inkscape:current-layer="layer1"
     inkscape:document-rotation="0"
     showgrid="false"
     inkscape:window-width="804"
     inkscape:window-height="863"
     inkscape:window-x="796"
     inkscape:window-y="0"
     inkscape:window-maximized="0" />
  <metadata
     id="metadata5">
    <rdf:RDF>
      <cc:Work
         rdf:about="">
        <dc:format>image/svg+xml</dc:format>
        <dc:type
           rdf:resource="http://purl.org/dc/dcmitype/StillImage" />
        <dc:title></dc:title>
      </cc:Work>
    </rdf:RDF>
  </metadata>
  <g
     inkscape:label="Layer 1"
     inkscape:groupmode="layer"
     id="layer1">
    <g
       sodipodi:type="inkscape:box3d"
       id="g34"
       style="fill:#000000"
       inkscape:perspectiveID="#perspective32"
       inkscape:corner0="-70.321902 : 0.12089302 : 0 : 1"
       inkscape:corner7="0.28233678 : -0.025867318 : 0.25 : 1">
      <path
         sodipodi:type="inkscape:box3dside"
         id="path46"
         style="fill:#e9e9ff;fill-rule:evenodd;stroke:none;stroke-linejoin:round"
         inkscape:box3dsidetype="11"
         d="M -2.2802326,149.53361 102.7842,101.90906 v 95.77551 L -2.2802326,147.40886 Z"
         points="102.7842,101.90906 102.7842,197.68457 -2.2802326,147.40886 -2.2802326,149.53361 " />
      <path
         sodipodi:type="inkscape:box3dside"
         id="path42"
         style="fill:#d7d7ff;fill-rule:evenodd;stroke:none;stroke-linejoin:round"
         inkscape:box3dsidetype="14"
         d="M 81.881768,92.825848 V 207.27342 l 20.902432,-9.58885 v -95.77551 z"
         points="81.881768,207.27342 102.7842,197.68457 102.7842,101.90906 81.881768,92.825848 " />
      <path
         sodipodi:type="inkscape:box3dside"
         id="path44"
         style="fill:#afafde;fill-rule:evenodd;stroke:none;stroke-linejoin:round"
         inkscape:box3dsidetype="13"
         d="M -1.5146728,147.4128 81.881768,207.27342 102.7842,197.68457 -2.2802326,147.40886 Z"
         points="81.881768,207.27342 102.7842,197.68457 -2.2802326,147.40886 -1.5146728,147.4128 " />
      <path
         sodipodi:type="inkscape:box3dside"
         id="path38"
         style="fill:#4d4d9f;fill-rule:evenodd;stroke:none;stroke-linejoin:round"
         inkscape:box3dsidetype="5"
         d="M -1.5146728,149.52988 81.881768,92.825848 102.7842,101.90906 -2.2802326,149.53361 Z"
         points="81.881768,92.825848 102.7842,101.90906 -2.2802326,149.53361 -1.5146728,149.52988 " />
      <path
         sodipodi:type="inkscape:box3dside"
         id="path36"
         style="fill:#353564;fill-rule:evenodd;stroke:none;stroke-linejoin:round"
         inkscape:box3dsidetype="6"
         d="m -1.5146728,149.52988 v -2.11708 l -0.7655598,-0.004 v 2.12475 z"
         points="-1.5146728,147.4128 -2.2802326,147.40886 -2.2802326,149.53361 -1.5146728,149.52988 " />
      <path
         sodipodi:type="inkscape:box3dside"
         id="path40"
         style="fill:#8686bf;fill-rule:evenodd;stroke:none;stroke-linejoin:round"
         inkscape:box3dsidetype="3"
         d="M -1.5146728,149.52988 81.881768,92.825848 V 207.27342 L -1.5146728,147.4128 Z"
         points="81.881768,92.825848 81.881768,207.27342 -1.5146728,147.4128 -1.5146728,149.52988 " />
    </g>
    <path
       style="fill:#000000;stroke-width:2.85714"
       d="M 155.04327,670.8844 C 72.174211,611.46941 4.3527831,562.08895 4.3289846,561.15003 c -0.023799,-0.9389 13.1353014,-10.45356 29.2424444,-21.14368 16.107142,-10.69012 29.714285,-20.52906 30.238094,-21.86432 0.523811,-1.33526 2.666668,-2.42774 4.761906,-2.42774 2.095237,0 4.238094,-0.96429 4.761905,-2.14286 0.523809,-1.17857 14.45238,-11.01466 30.952376,-21.85797 16.5,-10.84331 30.42858,-20.8076 30.95238,-22.14286 0.52382,-1.33526 2.66667,-2.42774 4.76191,-2.42774 2.09524,0 4.23809,-0.96429 4.76191,-2.14286 0.5238,-1.17857 14.45238,-11.01466 30.95238,-21.85797 16.5,-10.84331 30.42857,-20.8076 30.95238,-22.14286 0.52381,-1.33526 2.66666,-2.42774 4.7619,-2.42774 2.09524,0 4.2381,-0.96429 4.76191,-2.14286 0.52381,-1.17857 14.45238,-11.01466 30.95238,-21.85797 16.5,-10.84331 30.42857,-20.8076 30.95238,-22.14286 0.52381,-1.33526 2.77381,-2.42774 5,-2.42774 2.22619,0 4.05576,-0.96429 4.06567,-2.14286 0.02,-2.50637 17.39438,-12.82567 18.95889,-11.26114 0.58309,0.58308 0.73037,95.84263 0.32731,211.6879 l -0.73282,210.62776 z"
       id="path56"
       transform="scale(0.26458333)" />
    <path
       style="fill:#000000;stroke-width:2.85714"
       d="M 346.53273,726.19531 310.20832,708.57143 310.10416,565.51779 310,422.46415 l 38.57143,-17.4522 38.57143,-17.4522 v 178.36298 c 0,98.09964 -0.96429,178.25801 -2.14286,178.12973 -1.17857,-0.12829 -18.48884,-8.164 -38.46727,-17.85715 z"
       id="path58"
       transform="scale(0.26458333)" />
    <path
       style="fill:#000000;stroke-width:2.85714"
       d="m 310,747.10683 c 0,-18.83733 0.85631,-34.24969 1.90291,-34.24969 3.90922,0 69.52566,32.43256 69.52566,34.36479 0,1.82209 -8.68156,6.04044 -56.42857,27.41853 l -15,6.71605 z"
       id="path60"
       transform="scale(0.26458333)" />
    <path
       style="fill:#000000;stroke-width:2.85714"
       d="m 346.5924,724.79986 -33.4076,-16.22843 -0.77607,-126.42857 c -0.42684,-69.53572 -0.822,-133.60739 -0.87812,-142.3815 l -0.10204,-15.95292 36.94587,-16.90422 C 368.69466,397.6069 385.73038,390 386.23158,390 c 1.43689,0 1.07291,82.33785 -0.98309,222.3881 -1.0419,70.97227 -2.64904,128.95041 -3.57142,128.84033 -0.92239,-0.11 -16.71049,-7.50294 -35.08467,-16.42857 z"
       id="path62"
       transform="scale(0.26458333)" />
    <path
       style="fill:#000000;stroke-width:2.85714"
       d=""
       id="path64"
       transform="scale(0.26458333)" />
    <path
       style="fill:#000000;stroke-width:2.85714"
       d="m 310,385.71429 v -32.93383 l 9.28571,3.99175 c 43.55437,18.72322 65.05245,28.39168 64.37416,28.95135 -0.78185,0.64513 -45.78878,20.85214 -64.37416,28.90243 L 310,418.64811 Z"
       id="path66"
       transform="scale(0.26458333)" />
    <path
       style="fill:#000000;stroke-width:2.85714"
       d="m 310,385.71429 c 0,-16.5 0.51667,-30 1.14815,-30 2.4737,0 63.27434,26.42914 65.42706,28.44018 1.82246,1.70251 -59.82037,31.55982 -65.15781,31.55982 -0.77957,0 -1.4174,-13.5 -1.4174,-30 z"
       id="path68"
       transform="scale(0.26458333)" />
    <g
       sodipodi:type="inkscape:box3d"
       id="g70"
       style="fill:#000000"
       inkscape:perspectiveID="#perspective32"
       inkscape:corner0="0.16814172 : 0.06638795 : 0 : 1"
       inkscape:corner7="-0.54603598 : 0.029247711 : 0.25 : 1">
      <path
         sodipodi:type="inkscape:box3dside"
         id="path78"
         style="fill:#d7d7ff;fill-rule:evenodd;stroke:none;stroke-linejoin:round"
         inkscape:box3dsidetype="14"
         d="m 231.29587,111.29893 v 81.81317 l -7.56284,-15.84317 v -52.75872 z"
         points="231.29587,193.1121 223.73303,177.26893 223.73303,124.51021 231.29587,111.29893 " />
      <path
         sodipodi:type="inkscape:box3dside"
         id="path80"
         style="fill:#afafde;fill-rule:evenodd;stroke:none;stroke-linejoin:round"
         inkscape:box3dsidetype="13"
         d="M 89.886356,165.83719 231.29587,193.1121 223.73303,177.26893 111.06084,162.78087 Z"
         points="231.29587,193.1121 223.73303,177.26893 111.06084,162.78087 89.886356,165.83719 " />
      <path
         sodipodi:type="inkscape:box3dside"
         id="path82"
         style="fill:#e9e9ff;fill-rule:evenodd;stroke:none;stroke-linejoin:round"
         inkscape:box3dsidetype="11"
         d="m 111.06084,136.5915 112.67219,-12.08129 v 52.75872 L 111.06084,162.78087 Z"
         points="223.73303,124.51021 223.73303,177.26893 111.06084,162.78087 111.06084,136.5915 " />
      <path
         sodipodi:type="inkscape:box3dside"
         id="path74"
         style="fill:#4d4d9f;fill-rule:evenodd;stroke:none;stroke-linejoin:round"
         inkscape:box3dsidetype="5"
         d="M 89.886356,134.0429 231.29587,111.29893 223.73303,124.51021 111.06084,136.5915 Z"
         points="231.29587,111.29893 223.73303,124.51021 111.06084,136.5915 89.886356,134.0429 " />
      <path
         sodipodi:type="inkscape:box3dside"
         id="path72"
         style="fill:#353564;fill-rule:evenodd;stroke:none;stroke-linejoin:round"
         inkscape:box3dsidetype="6"
         d="m 89.886356,134.0429 v 31.79429 l 21.174484,-3.05632 V 136.5915 Z"
         points="89.886356,165.83719 111.06084,162.78087 111.06084,136.5915 89.886356,134.0429 " />
      <path
         sodipodi:type="inkscape:box3dside"
         id="path76"
         style="fill:#8686bf;fill-rule:evenodd;stroke:none;stroke-linejoin:round"
         inkscape:box3dsidetype="3"
         d="M 89.886356,134.0429 231.29587,111.29893 V 193.1121 L 89.886356,165.83719 Z"
         points="231.29587,111.29893 231.29587,193.1121 89.886356,165.83719 89.886356,134.0429 " />
    </g>
    <path
       style="fill:#000000;stroke-width:0.755952"
       d="M 158.98036,180.4139 C 125.30268,173.88374 94.431513,167.93255 90.37772,167.18903 l -7.370535,-1.35184 v -15.79495 c 0,-8.68722 0.255135,-15.79632 0.566965,-15.79799 0.663085,-0.004 13.311358,-2.07011 16.033683,-2.61969 1.022797,-0.20647 3.233957,-0.57239 4.913697,-0.81315 4.68913,-0.6721 16.43368,-2.56309 18.55109,-2.98691 1.03944,-0.20805 3.42069,-0.57092 5.29167,-0.80638 1.87098,-0.23545 6.46339,-0.95055 10.20536,-1.5891 3.74196,-0.63855 7.8241,-1.30889 9.07143,-1.48965 3.30142,-0.47845 15.56252,-2.49264 17.73461,-2.91336 1.02279,-0.1981 3.23395,-0.55289 4.91369,-0.78841 4.43133,-0.62134 16.34984,-2.53597 18.52084,-2.97526 1.02279,-0.20695 3.23395,-0.57025 4.91369,-0.80733 4.45327,-0.62852 11.8768,-1.80402 13.7306,-2.17421 1.54567,-0.30865 4.03735,-0.69561 10.49013,-1.62913 1.6631,-0.24059 3.61913,-0.60561 4.34673,-0.81114 1.24811,-0.35256 1.32292,1.91622 1.32292,40.1207 v 40.49439 l -1.7009,-0.0844 c -0.93549,-0.0464 -29.25535,-5.42721 -62.93303,-11.95737 z"
       id="path84" />
    <path
       style="fill:#000000;stroke-width:2.85714"
       d="m 853.57143,725.12649 -6.42857,-1.2382 -0.0315,-137.65844 c -0.0173,-75.71213 -0.81797,-142.41574 -1.77929,-148.23025 -1.89514,-11.46279 -3.55159,-10.22775 20.38217,-15.19689 l 7.14285,-1.48301 v 152.91158 152.91158 l -6.42857,-0.38909 c -3.53571,-0.214 -9.32143,-0.94628 -12.85714,-1.62728 z"
       id="path86"
       transform="scale(0.26458333)" />
  </g>
</svg>
